<svg width="121" height="98" viewBox="0 0 121 98" fill="none" xmlns="http://www.w3.org/2000/svg">
<g clip-path="url(#clip0_635_154)">
<path d="M47.263 54.2119C47.7011 46.397 51.5277 39.5125 57.3011 34.6318C62.9625 29.8382 70.5825 26.9082 78.8972 26.9082C87.2034 26.9082 94.824 29.8382 100.49 34.6318C106.258 39.512 110.085 46.397 110.528 54.2034C110.965 62.2329 107.738 69.692 102.076 75.2212C96.3036 80.8454 88.0919 84.3745 78.8972 84.3745C69.7025 84.3745 61.4749 80.8454 55.7057 75.2212C50.0401 69.6916 46.8206 62.2324 47.263 54.2119Z" fill="white"/>
<path d="M62.6701 54.9079C62.8946 50.8984 64.8584 47.3655 67.8204 44.8614C70.7255 42.402 74.6353 40.8984 78.9018 40.8984C83.1636 40.8984 87.0739 42.402 89.9808 44.8614C92.941 47.3655 94.9043 50.8984 95.1312 54.9042C95.3561 59.0239 93.7005 62.8513 90.795 65.6881C87.833 68.5739 83.6196 70.3848 78.9018 70.3848C74.184 70.3848 69.9622 68.5739 67.002 65.6881C64.0951 62.8513 62.4433 59.0239 62.6701 54.9079Z" fill="#265787"/>
<path d="M36.9007 63.146C36.929 64.7179 37.4301 67.774 38.1826 70.16C39.7634 75.211 42.4449 79.8841 46.1764 84.0019C50.0057 88.235 54.7207 91.6352 60.1675 94.0489C65.892 96.5841 72.0946 97.8759 78.5372 97.8655C84.9694 97.8566 91.1725 96.5394 96.897 93.9849C102.343 91.5477 107.054 88.1329 110.877 83.8979C114.606 79.7627 117.284 75.0816 118.869 70.0306C119.666 67.4785 120.169 64.8882 120.371 62.2891C120.569 59.7251 120.485 57.1472 120.123 54.6012C119.413 49.6076 117.685 44.9223 115.025 40.651C112.592 36.7262 109.456 33.2903 105.726 30.3979L105.735 30.3918L68.1001 1.49418C68.0657 1.46877 68.0379 1.44148 68.0017 1.41795C65.5329 -0.477659 61.3803 -0.47107 58.6649 1.4283C55.9193 3.34932 55.605 6.52638 58.0484 8.52976L58.038 8.54058L73.7351 21.3053L25.8918 21.3562H25.8278C21.8733 21.3609 18.0722 23.9553 17.3192 27.234C16.546 30.5744 19.2322 33.3453 23.3439 33.3604L23.3373 33.375L47.5877 33.3279L4.31447 66.5438C4.25941 66.5843 4.19965 66.6267 4.14882 66.6671C0.0667751 69.7929 -1.25281 74.9908 1.31812 78.2798C3.92763 81.6249 9.47609 81.631 13.6005 78.2991L37.2174 58.9708C37.2174 58.9708 36.8729 61.5799 36.9007 63.146ZM97.5878 71.8833C92.7218 76.8412 85.9088 79.6521 78.5377 79.6672C71.1552 79.6799 64.3427 76.8939 59.4767 71.945C57.0987 69.5331 55.3523 66.758 54.2746 63.8021C53.2149 60.8933 52.8073 57.7871 53.0807 54.7034C53.3376 51.6623 54.243 48.762 55.6878 46.1374C57.1072 43.558 59.0621 41.2266 61.4763 39.2547C66.2059 35.4005 72.2282 33.3133 78.5264 33.3049C84.8316 33.2964 90.8492 35.3642 95.584 39.2063C97.9935 41.1692 99.9465 43.4921 101.366 46.0677C102.829 48.7062 103.721 51.6232 103.984 54.629C104.253 57.7109 103.844 60.8144 102.785 63.7211C101.706 66.686 99.9653 69.4611 97.5878 71.8833Z" fill="#EA7600"/>
</g>
<defs>
<clipPath id="clip0_635_154">
<rect width="120.475" height="97.8863" fill="white"/>
</clipPath>
</defs>
</svg>
