<svg width="136" height="105" viewBox="0 0 136 105" fill="none" xmlns="http://www.w3.org/2000/svg">
<g clip-path="url(#clip0_635_171)">
<path fill-rule="evenodd" clip-rule="evenodd" d="M11.2395 83.4378C19.1486 85.6878 27.6821 82.1253 29.9716 75.3753L38.9213 49.3128C41.419 42.5628 36.84 35.2503 28.9309 33.0003L28.3065 32.8128C20.3974 30.5628 11.8639 34.1253 9.57448 40.8753L0.62472 66.9378C-1.87289 73.6878 2.70606 81.0003 10.6151 83.2503L11.2395 83.4378Z" fill="#084F99"/>
<path fill-rule="evenodd" clip-rule="evenodd" d="M105.941 9.18815C107.606 5.43815 110.728 2.62565 114.474 1.12565C114.683 1.12565 114.891 0.938151 115.099 0.938151C115.307 0.938151 115.307 0.938151 115.515 0.750651C118.637 -0.374349 121.967 -0.561849 125.089 0.375651L125.714 0.563151C133.623 2.81315 137.785 10.8757 135.08 18.5632L113.434 84.5631C107.398 100.126 89.4983 108.001 73.8883 104.063C73.8883 104.063 69.7256 102.938 68.0605 101.813C83.4625 98.8131 102.819 15.9382 105.941 9.18815Z" fill="#5EB7FF"/>
<path fill-rule="evenodd" clip-rule="evenodd" d="M13.7369 92.2505C17.067 93.188 20.6053 93.188 23.7273 92.6255C24.1436 92.438 24.768 92.438 25.1842 92.2505C31.6364 90.3755 37.0479 85.688 39.3373 79.313L56.1962 29.063C58.9019 21.3755 67.6435 17.063 75.5526 19.313L76.177 19.5005C84.0861 21.7505 88.2488 29.813 85.543 37.5005C85.543 37.5005 69.5167 85.1255 67.2273 89.063C50.7847 115.876 19.9809 102.751 11.2393 91.5005C11.6555 91.688 12.2799 91.8755 12.6962 92.063L13.7369 92.2505Z" fill="#1479FB"/>
</g>
<defs>
<clipPath id="clip0_635_171">
<rect width="135.703" height="105" fill="white"/>
</clipPath>
</defs>
</svg>
