<svg width="132" height="105" viewBox="0 0 132 105" fill="none" xmlns="http://www.w3.org/2000/svg">
<g clip-path="url(#clip0_635_160)">
<path d="M34.4272 105.001L17.2864 72.5181L0 105.001H3.27488L9.06793 94.1147V94.1489H25.4303L31.1571 105.001H34.4268V105.001H34.4272ZM10.4622 91.494L17.2744 78.6934L24.0296 91.494H10.4625H10.4622Z" fill="#1D7EC2"/>
<path d="M43.1336 72.4443H40.1792V105.001H43.1336V72.4443Z" fill="#1D7EC2"/>
<path d="M68.7706 104.806H49.6396L64.1523 75.4115H50.26V72.7563H68.6954L54.1827 102.152H68.7706V104.806Z" fill="#1D7EC2"/>
<path d="M96.6668 75.4115V72.7563H76.0269V104.806H96.6668V102.152H78.9819V88.7614H96.6668V86.1072H78.9819V75.4115H96.6668Z" fill="#1D7EC2"/>
<path d="M106.225 105.001H103.271V72.9828L128.299 97.8111V72.4443H131.254V104.696L106.225 79.8686V105.001Z" fill="#1D7EC2"/>
<path d="M66.1044 0.00159376L79.8734 21.5605H70.4039C61.1591 21.5605 52.9022 27.1214 50.7265 35.2647C49.6266 39.3799 50.4963 43.8505 54.5777 46.3872C58.6973 48.9476 66.7306 48.4224 67.4155 42.884C67.1898 44.7097 67.7463 46.4002 67.0401 48.2277C64.5205 54.7456 53.2185 52.303 49.022 48.7578C40.3508 41.4336 46.3012 29.7627 51.4866 22.3197C51.5945 22.1648 51.7027 22.0101 51.8112 21.8546C53.9089 18.8507 66.1044 0.000976562 66.1044 0.000976562V0.00159376Z" fill="#BBB3D5"/>
<path d="M65.4484 44.0226C65.4484 44.0226 63.1755 42.4518 63.1755 38.3676C63.1755 35.0529 66.4673 32.8566 69.7758 32.1635C75.3648 30.9927 80.6296 33.5513 83.8079 37.6081C86.854 41.4964 87.7883 46.3905 87.1484 51.0512C86.7318 54.0857 85.6752 57.0513 84.0872 59.754C82.8427 61.8719 81.3863 63.8867 79.8739 65.8559H109.335C109.335 65.8559 99.7186 52.8182 96.047 45.7501C92.486 38.8949 87.7014 30.4159 79.0986 27.9209C74.469 26.5782 69.4189 27.0794 65.2709 29.3525C61.694 31.3127 58.2107 35.2165 59.9151 39.1724C60.105 39.6137 60.3554 40.0331 60.6495 40.425C61.9139 42.1112 63.7293 42.8327 65.4502 44.0217L65.4484 44.0223V44.0226Z" fill="#BBB3D5"/>
<path d="M66.0616 42.3734C66.4483 42.0339 68.0707 42.154 68.5454 42.1617C70.1996 42.1892 71.9092 42.5586 73.1911 43.5442C76.2235 45.8754 76.6055 49.7902 75.1291 52.9583C73.5013 56.4516 69.6367 58.1791 65.6858 58.8886C59.791 59.9471 52.8123 59.4314 47.7117 56.3698C43.1456 53.6298 40.3757 49.1869 38.0567 44.8443C38.0086 44.7536 37.9602 44.6632 37.9121 44.5725L23.8374 65.8564C23.8374 65.8564 53.2107 66.3277 63.3514 65.8564C73.492 65.3852 80.3984 58.0813 80.3984 50.7768C80.3984 43.4723 73.7541 35.6188 66.0616 42.3728V42.3734Z" fill="#BBB3D5"/>
</g>
<defs>
<clipPath id="clip0_635_160">
<rect width="131.254" height="105" fill="white"/>
</clipPath>
</defs>
</svg>
