<svg width="128" height="126" viewBox="0 0 128 126" fill="none" xmlns="http://www.w3.org/2000/svg">
<g clip-path="url(#clip0_635_176)">
<path d="M64.0415 0.000488281C67.8773 0.000488281 70.8793 2.85049 70.8793 6.30049C70.8793 6.75049 70.8793 7.20049 70.7125 7.65049L74.2148 10.0505C95.2286 24.1505 132.253 51.0005 127.583 61.6505C124.915 67.5005 114.741 69.3005 103.067 69.4505H102.066C100.899 69.4505 99.5647 69.4505 98.2305 69.3005C98.5641 70.2005 98.8976 71.1005 99.2312 72.0005C99.8983 74.4005 100.565 76.6505 100.732 79.3505C100.732 80.5505 100.732 81.7505 100.399 83.1005L100.232 83.7005C99.5647 85.5005 97.7302 86.8505 95.7289 87.1505C93.7276 87.4505 92.2266 87.0005 90.8924 86.5505C89.3914 86.1005 88.224 85.5005 87.0566 84.9005C84.7217 83.7005 82.5536 82.2005 80.3855 80.7005C76.3829 77.7005 72.7138 74.2505 69.3783 70.6505C67.8773 71.5505 66.0428 72.0005 64.2083 72.0005C59.0382 72.0005 54.8688 68.4005 54.3685 63.9005C48.1978 63.0005 41.8603 62.2505 35.5228 61.9505C36.1899 63.3005 36.5235 64.8005 37.1906 66.3005C40.8597 75.1505 45.0291 83.8505 49.3652 92.5505C51.5333 96.9005 53.7014 101.1 56.0363 105.45C57.5372 108.45 59.205 111.3 60.706 114.3C61.7066 113.85 62.8741 113.4 64.2083 113.4C68.0441 113.4 71.0461 116.25 71.0461 119.7C71.0461 123.15 68.0441 126 64.2083 126C60.3724 126 57.3705 123.15 57.3705 119.7C57.3705 119.25 57.5372 118.8 57.5372 118.35L53.3679 115.5C31.8538 101.1 -4.33657 74.7005 0.333154 64.3505C3.33512 57.7505 16.0101 56.2505 29.6857 56.5505C29.3521 55.6505 29.0186 54.7505 28.685 53.8505C28.0179 51.4505 27.3508 49.2005 27.1841 46.5005C27.0173 45.3005 27.0173 44.1005 27.5176 42.7505L27.6844 42.1505C28.1847 40.5005 30.3528 38.8505 32.1873 38.7005C34.1886 38.4005 35.6896 38.8505 37.0238 39.3005C38.5248 39.7505 39.6922 40.3505 40.8597 40.9505C43.1945 42.1505 45.3626 43.6505 47.5307 45.1505C51.5333 48.1505 55.2024 51.6005 58.5379 55.2005C60.0389 54.3005 61.8734 53.8505 63.7079 53.8505C68.7112 54.0005 73.0474 57.4505 73.5477 61.9505C79.7184 62.8505 86.2227 63.6005 92.3934 63.9005C91.7263 62.5505 91.3927 61.0505 90.7256 59.5505C87.0566 50.7005 82.8872 42.0005 78.7178 33.3005C76.5497 28.9505 74.3816 24.7505 72.0467 20.4005C70.5458 17.4005 68.878 14.5505 67.377 11.5505C66.3764 12.0005 65.2089 12.4505 63.8747 12.4505C60.0389 12.4505 57.0369 9.60049 57.0369 6.15049C57.0369 2.85049 60.2057 0.000488281 64.0415 0.000488281ZM31.687 61.8005L29.6857 61.6505C17.1775 61.2005 7.17096 62.4005 5.5032 66.3005C3.50189 70.6505 24.3489 90.1505 59.205 113.4C58.0376 111.6 56.8701 109.8 55.8695 107.85L54.8688 106.05C52.3672 101.85 50.0323 97.6505 47.5307 93.4505C42.861 84.9005 38.1913 76.3505 34.1886 67.6505C33.188 65.7005 32.5209 63.7505 31.687 61.8005ZM72.8806 66.9005L73.2142 67.2005V67.3505C76.2161 70.9505 79.7184 74.4005 83.3875 77.2505C85.222 78.7505 87.2233 80.1005 89.2246 81.3005C91.2259 82.3505 93.5608 83.4005 94.895 83.2505C95.2286 83.2505 95.2286 83.1005 95.3953 83.1005L95.5621 82.9505C95.7289 82.9505 95.7289 82.8005 95.8957 82.6505L96.0624 82.5005C96.396 81.9005 96.5628 80.8505 96.5628 79.8005C96.396 77.7005 96.0624 75.4505 95.5621 73.2005L94.3947 69.3005C86.5562 68.7005 78.8845 67.8005 72.8806 66.9005ZM68.878 12.9005C70.5458 15.3005 71.88 17.7005 73.3809 20.1005C75.8826 24.3005 78.2174 28.5005 80.7191 32.7005C85.3888 41.2505 89.8917 49.8005 94.0611 58.5005C94.895 60.3005 95.7289 62.2505 96.5628 64.2005C109.905 64.8005 120.912 63.7505 122.747 59.7005C124.915 54.4505 97.7302 32.1005 68.878 12.9005ZM33.3548 42.9005H33.0212C32.8544 42.9005 32.6877 43.0505 32.5209 43.0505L32.3541 43.2005C32.1873 43.2005 32.1873 43.3505 32.0205 43.5005L31.8538 43.6505C31.5202 44.2505 31.3534 45.3005 31.3534 46.3505C31.5202 48.4505 31.8538 50.7005 32.3541 52.9505C32.6877 54.3005 33.188 55.6505 33.5215 56.8505C40.6929 57.3005 47.8642 58.0505 53.5346 58.9505L54.8688 59.1005L54.5353 58.9505V58.8005C51.5333 55.2005 48.031 51.9005 44.362 48.7505C42.5274 47.2505 40.5261 45.9005 38.5248 44.7005C37.1906 43.8005 35.3561 43.0505 33.3548 42.9005Z" fill="black"/>
</g>
<defs>
<clipPath id="clip0_635_176">
<rect width="127.917" height="126" fill="white"/>
</clipPath>
</defs>
</svg>
